<svg width="278" height="128" viewBox="0 0 1327 68" style="enable-background:new 0 0 328 68;" fill="none" xmlns="http://www.w3.org/2000/svg">
<style type="text/css">
	.st0{fill:none;}
	.st1{fill:#6C63FF;}
	.st2{fill:#FFFFFF;}
</style>
<g id="Layer_2_1_">
	<g id="Layer_1-2">
		<path class="st0" d="M202.4,97c-5.1-4.1-12.6-6.2-22.2-6.2h-61.5l0,0h-0.5v74.9H94.3c-3.5,0-5.9-0.6-7.4-2s-2.2-3.6-2.2-7v-66
			h33.4l0,0h0.5v-7.2c0-2.9-2.3-5.3-5.2-5.3c0,0,0,0,0,0H61.7c-2.9,0-5.3,2.3-5.3,5.2c0,0,0,0,0,0l0,0v80.8c0,7.7,2.5,13.4,7.6,17.5
			s12.6,6.1,22.2,6.1h62v-75H172c3.5,0,5.9,0.6,7.4,2s2.2,3.6,2.2,7v66h28.3v-73.5C209.9,106.8,207.4,101.1,202.4,97z"/>
		<path class="st0" d="M1220.2,120.2c-1.5-1.1-3.3-1.7-5.2-1.6h-20.2v13.9h20.2c2,0.1,3.9-0.6,5.4-1.8c1.4-1.2,2.1-3,2.1-4.8
			C1222.5,123.3,1221.7,121.4,1220.2,120.2z"/>
		<path class="st0" d="M1220.3,91.6c-1.5-1.2-3.4-1.9-5.3-1.8h-20.2v13.8h20.2c2,0.1,3.9-0.5,5.4-1.7c1.4-1.2,2.2-3,2.1-4.8
			C1222.6,94.9,1221.8,93,1220.3,91.6z"/>
		<polygon class="st1" points="379.6,72.8 343.3,72.8 343.3,197.3 442.1,197.3 442.1,169 379.6,169 		"/>
		<path class="st1" d="M1238.1,112.6l-3.3-1.2l3.2-1.5c1.7-0.8,3.1-2,4.2-3.5c1.1-1.5,1.7-3.3,1.6-5.2v-9.8c0-6-1.8-10.4-5.6-13.6
			s-9.5-4.8-17.1-4.8H1173v76.4h48.1c7.6,0,13.5-1.6,17.4-4.8s5.8-7.6,5.8-13.5v-10c0-1.8-0.6-3.6-1.7-5
			C1241.6,114.4,1239.9,113.2,1238.1,112.6z M1220.4,130.6c-1.5,1.3-3.5,1.9-5.4,1.8h-20.2v-13.9h20.2c1.9-0.1,3.7,0.5,5.2,1.6
			c1.5,1.2,2.3,3.1,2.3,5.6C1222.6,127.7,1221.8,129.4,1220.4,130.6L1220.4,130.6z M1220.4,101.8c-1.5,1.2-3.5,1.8-5.4,1.7h-20.2
			V89.8h20.2c1.9,0,3.8,0.6,5.3,1.8c1.5,1.4,2.3,3.4,2.2,5.4C1222.6,98.8,1221.8,100.6,1220.4,101.8L1220.4,101.8z"/>
		<rect x="1112.7" y="169" class="st1" width="36.5" height="28.3"/>
		<path class="st1" d="M1112.7,120.8h-43.6v-17.7c0-9.8-3.2-17.2-9.7-22.4s-16.2-7.9-28.6-7.9h-95.7c-12.3,0-21.8,2.7-28.4,7.9
			s-9.7,12.5-9.7,22.4v64c0,9.9,3.1,17.1,9.6,22.3s16,7.8,28.5,7.8h78.2V169h-64.4c-3.3,0-5.9-0.1-7.8-0.2c-1.7,0-3.3-0.4-4.9-1.1
			c-1.3-0.6-2.2-1.7-2.6-3c-0.3-1.2-0.5-2.5-0.4-3.8v-46.5c-0.1-2.1,0.2-4.1,0.6-6.1c0.4-1.7,1.3-3.2,2.6-4.3
			c1.5-1.2,3.3-1.9,5.2-2.2c2.4-0.3,4.8-0.5,7.2-0.5h68.1c2.5,0,4.9,0.1,7.4,0.4c2,0.2,3.8,1,5.3,2.3c1.4,1.6,2.3,3.6,2.5,5.8
			c0.4,3.1,0.5,6.1,0.5,9.2v78.3h36.5v-48h80V72.8h-36.5L1112.7,120.8z"/>
		<polygon class="st1" points="1306.8,72.8 1306.8,102.6 1278.9,102.6 1278.9,72.8 1257.1,72.8 1257.1,149.3 1278.9,149.3 
			1278.9,119.5 1306.8,119.5 1306.8,149.3 1328.5,149.3 1328.5,119.5 1328.5,117.1 1328.5,72.8 		"/>
		<rect x="118.2" y="90.8" class="st1" width="0.5" height="0"/>
		<path class="st1" d="M118.2,90.9v74.9H94.3c-3.5,0-5.9-0.6-7.4-2s-2.2-3.6-2.2-7v-66L118.2,90.9z"/>
		<path class="st1" d="M133.2,0C59.6,0,0,59.6,0,133.2s59.6,133.2,133.2,133.2s133.2-59.6,133.2-133.2C266.4,59.6,206.8,0,133.2,0z
			 M209.9,188h-28.3v-66c0-3.3-0.7-5.6-2.2-7s-3.9-2-7.4-2h-23.8v75h-62c-9.6,0-17-2.1-22.2-6.2s-7.6-9.8-7.6-17.5V83.6
			c0-2.9,2.4-5.3,5.3-5.3h51.7c2.9,0,5.3,2.3,5.3,5.2l0,0v7.2h61.5c9.6,0,17,2.1,22.2,6.2s7.6,9.8,7.6,17.5L209.9,188z"/>
		<path class="st2" d="M202.4,97c-5.1-4.1-12.6-6.2-22.2-6.2h-61.5v-7.2c0-2.9-2.3-5.3-5.2-5.3H61.7c-2.9,0-5.3,2.3-5.3,5.2
			c0,0,0,0,0,0l0,0v80.8c0,7.7,2.5,13.4,7.6,17.5s12.6,6.1,22.2,6.1h62v-75h23.8c3.5,0,5.9,0.6,7.4,2s2.2,3.6,2.2,7v66h28.3v-73.5
			C209.9,106.8,207.4,101.1,202.4,97z M118.2,165.8H94.3c-3.5,0-5.9-0.6-7.4-2s-2.2-3.6-2.2-7v-66h33.4L118.2,165.8z"/>
		<path class="st1" d="M868,80.8c-6.5-5.2-16.1-7.9-28.4-7.9h-79.4v124.4h36.3v-96h32.7c4.5,0,7.6,0.8,9.4,2.5s2.8,4.7,2.8,8.9v84.6
			h36.2v-94.1C877.7,93.3,874.5,86,868,80.8z"/>
		<polygon class="st1" points="515.7,72.7 457.6,197.3 495.3,197.3 536.2,109.3 577.7,197.3 616.1,197.3 557.4,72.7 		"/>
		<polygon class="st1" points="515.9,197.3 557.9,197.3 536.9,152.9 		"/>
		<path class="st1" d="M703.7,168.8H671c-4.5,0-7.6-0.8-9.4-2.5s-2.8-4.6-2.8-8.9V72.8h-36.3V167c0,9.8,3.2,17.2,9.7,22.4
			s16.1,7.9,28.4,7.9H740V72.8h-36.3V168.8z"/>
	</g>
</g>
</svg>
